# Blender v3.0.0 OBJ File: ''
# www.blender.org
mtllib komnata.mtl
o Куб.001_Куб.010
v 8.704499 14.661921 8.704499
v 8.704499 12.661921 8.704499
v 8.704499 14.661921 -8.704499
v 8.704499 12.661921 -8.704499
v -8.704499 14.661922 8.704499
v -8.704499 12.661922 8.704499
v -8.704499 14.661922 -8.704499
v -8.704499 12.661922 -8.704499
vt 0.375000 0.000000
vt 0.625000 0.000000
vt 0.625000 0.250000
vt 0.375000 0.250000
vt 0.625000 0.500000
vt 0.375000 0.500000
vt 0.625000 0.750000
vt 0.375000 0.750000
vt 0.625000 1.000000
vt 0.375000 1.000000
vt 0.125000 0.500000
vt 0.125000 0.750000
vt 0.008305 -0.033421
vt 0.998885 -0.033421
vt 0.998885 0.957160
vt 0.008305 0.957160
vn 1.0000 0.0000 0.0000
vn 0.0000 0.0000 -1.0000
vn -1.0000 0.0000 0.0000
vn 0.0000 0.0000 1.0000
vn 0.0000 1.0000 0.0000
vn -0.0000 -1.0000 0.0000
usemtl Материал
s off
f 1/1/1 2/2/1 4/3/1 3/4/1
f 3/4/2 4/3/2 8/5/2 7/6/2
f 7/6/3 8/5/3 6/7/3 5/8/3
f 5/8/4 6/7/4 2/9/4 1/10/4
f 3/11/5 7/6/5 5/8/5 1/12/5
f 8/13/6 4/14/6 2/15/6 6/16/6
o Куб.005_Куб.011
v -8.704499 -1.000000 -8.194066
v -8.704499 1.000000 -8.194066
v -8.704499 -1.000000 -25.603065
v -8.704499 1.000000 -25.603065
v 8.704499 -1.000000 -8.194066
v 8.704499 1.000000 -8.194066
v 8.704499 -1.000000 -25.603065
v 8.704499 1.000000 -25.603065
vt 0.375000 0.000000
vt 0.625000 0.000000
vt 0.625000 0.250000
vt 0.375000 0.250000
vt 0.625000 0.500000
vt 0.375000 0.500000
vt 0.625000 0.750000
vt 0.375000 0.750000
vt 0.625000 1.000000
vt 0.375000 1.000000
vt 0.125000 0.500000
vt 0.125000 0.750000
vt 0.008305 -0.033421
vt 0.998885 -0.033421
vt 0.998885 0.957160
vt 0.008305 0.957160
vn -1.0000 0.0000 0.0000
vn 0.0000 0.0000 -1.0000
vn 1.0000 0.0000 0.0000
vn 0.0000 0.0000 1.0000
vn 0.0000 -1.0000 0.0000
vn 0.0000 1.0000 0.0000
usemtl Материал
s off
f 9/17/7 10/18/7 12/19/7 11/20/7
f 11/20/8 12/19/8 16/21/8 15/22/8
f 15/22/9 16/21/9 14/23/9 13/24/9
f 13/24/10 14/23/10 10/25/10 9/26/10
f 11/27/11 15/22/11 13/24/11 9/28/11
f 16/29/12 12/30/12 10/31/12 14/32/12
o Куб.006_Куб.012
v 7.578148 -1.547355 -24.666176
v 7.578148 12.631443 -24.666176
v 9.578148 -1.547355 -24.666176
v 9.578148 12.631443 -24.666176
v 7.578149 -1.547355 -8.780460
v 7.578149 12.631443 -8.780460
v 9.578150 -1.547355 -8.780460
v 9.578150 12.631443 -8.780460
vt 0.375000 0.000000
vt 0.625000 0.000000
vt 0.625000 0.250000
vt 0.375000 0.250000
vt 0.625000 0.500000
vt 0.375000 0.500000
vt 0.625000 0.750000
vt 0.375000 0.750000
vt 1.019525 0.001723
vt 1.016231 0.912688
vt -0.016231 0.912688
vt -0.012938 0.001724
vt 0.125000 0.500000
vt 0.125000 0.750000
vt 0.875000 0.500000
vt 0.875000 0.750000
vn 0.0000 0.0000 -1.0000
vn 1.0000 0.0000 -0.0000
vn 0.0000 0.0000 1.0000
vn -1.0000 0.0000 0.0000
vn 0.0000 -1.0000 -0.0000
vn 0.0000 1.0000 0.0000
usemtl 01___Default.004
s off
f 17/33/13 18/34/13 20/35/13 19/36/13
f 19/36/14 20/35/14 24/37/14 23/38/14
f 23/38/15 24/37/15 22/39/15 21/40/15
f 21/41/16 22/42/16 18/43/16 17/44/16
f 19/45/17 23/38/17 21/40/17 17/46/17
f 24/37/18 20/47/18 18/48/18 22/39/18
o Куб.007_Куб.013
v 8.704499 14.661921 -8.730275
v 8.704499 12.661921 -8.730275
v 8.704499 14.661921 -26.139275
v 8.704499 12.661921 -26.139275
v -8.704499 14.661922 -8.730275
v -8.704499 12.661922 -8.730275
v -8.704499 14.661922 -26.139275
v -8.704499 12.661922 -26.139275
vt 0.375000 0.000000
vt 0.625000 0.000000
vt 0.625000 0.250000
vt 0.375000 0.250000
vt 0.625000 0.500000
vt 0.375000 0.500000
vt 0.625000 0.750000
vt 0.375000 0.750000
vt 0.625000 1.000000
vt 0.375000 1.000000
vt 0.125000 0.500000
vt 0.125000 0.750000
vt 0.008305 -0.033421
vt 0.998885 -0.033421
vt 0.998885 0.957160
vt 0.008305 0.957160
vn 1.0000 0.0000 0.0000
vn 0.0000 0.0000 -1.0000
vn -1.0000 0.0000 0.0000
vn 0.0000 0.0000 1.0000
vn 0.0000 1.0000 0.0000
vn -0.0000 -1.0000 0.0000
usemtl Материал
s off
f 25/49/19 26/50/19 28/51/19 27/52/19
f 27/52/20 28/51/20 32/53/20 31/54/20
f 31/54/21 32/53/21 30/55/21 29/56/21
f 29/56/22 30/55/22 26/57/22 25/58/22
f 27/59/23 31/54/23 29/56/23 25/60/23
f 32/61/24 28/62/24 26/63/24 30/64/24
o Куб.002_Куб.003
v 7.578148 -1.547355 -7.476332
v 7.578148 12.631443 -7.476332
v 9.578148 -1.547355 -7.476332
v 9.578148 12.631443 -7.476332
v 7.578149 -1.547355 8.409384
v 7.578149 12.631443 8.409384
v 9.578150 -1.547355 8.409384
v 9.578150 12.631443 8.409384
vt 0.375000 0.000000
vt 0.625000 0.000000
vt 0.625000 0.250000
vt 0.375000 0.250000
vt 0.625000 0.500000
vt 0.375000 0.500000
vt 0.625000 0.750000
vt 0.375000 0.750000
vt 1.019525 0.001723
vt 1.016231 0.912688
vt -0.016231 0.912688
vt -0.012938 0.001724
vt 0.125000 0.500000
vt 0.125000 0.750000
vt 0.875000 0.500000
vt 0.875000 0.750000
vn 0.0000 0.0000 -1.0000
vn 1.0000 0.0000 -0.0000
vn 0.0000 0.0000 1.0000
vn -1.0000 0.0000 0.0000
vn 0.0000 -1.0000 -0.0000
vn 0.0000 1.0000 0.0000
usemtl 01___Default
s off
f 33/65/25 34/66/25 36/67/25 35/68/25
f 35/68/26 36/67/26 40/69/26 39/70/26
f 39/70/27 40/69/27 38/71/27 37/72/27
f 37/73/28 38/74/28 34/75/28 33/76/28
f 35/77/29 39/70/29 37/72/29 33/78/29
f 40/69/30 36/79/30 34/80/30 38/71/30
o Куб.004_Куб.007
v 12.136971 -1.481802 8.246140
v 12.136971 12.565889 8.246140
v 12.136971 -1.481802 10.246140
v 12.136971 12.565889 10.246140
v -12.377073 -1.481802 8.246137
v -12.377073 12.565889 8.246137
v -12.377073 -1.481802 10.246137
v -12.377073 12.565889 10.246137
vt 0.375000 0.000000
vt 0.625000 0.000000
vt 0.625000 0.250000
vt 0.375000 0.250000
vt 0.625000 0.500000
vt 0.375000 0.500000
vt 0.625000 0.750000
vt 0.375000 0.750000
vt 1.019525 0.001723
vt 1.016231 0.912688
vt -0.016231 0.912688
vt -0.012938 0.001724
vt 0.125000 0.500000
vt 0.125000 0.750000
vt 0.875000 0.500000
vt 0.875000 0.750000
vn 1.0000 0.0000 0.0000
vn -0.0000 0.0000 1.0000
vn -1.0000 0.0000 0.0000
vn 0.0000 0.0000 -1.0000
vn 0.0000 -1.0000 0.0000
vn 0.0000 1.0000 0.0000
usemtl 01___Default.002
s off
f 41/81/31 42/82/31 44/83/31 43/84/31
f 43/84/32 44/83/32 48/85/32 47/86/32
f 47/86/33 48/85/33 46/87/33 45/88/33
f 45/89/34 46/90/34 42/91/34 41/92/34
f 43/93/35 47/86/35 45/88/35 41/94/35
f 48/85/36 44/95/36 42/96/36 46/87/36
o Куб.003_Куб.008
v -12.231528 -0.226856 -6.923921
v -12.231528 12.602453 -6.923921
v -12.231528 -0.226856 -8.923922
v -12.231528 12.602453 -8.923922
v 7.927295 -0.226856 -6.923921
v 7.927295 12.602453 -6.923921
v 7.927295 -0.226856 -8.923922
v 7.927295 12.602453 -8.923922
v -12.231528 5.542044 -6.923921
v -12.231528 5.542044 -8.923922
v 7.927295 5.542044 -8.923922
v 7.927295 5.542044 -6.923921
v -2.152117 -0.226856 -8.923922
v -2.152117 12.602453 -8.923922
v -2.152117 -0.226856 -6.923921
v -2.152117 12.602453 -6.923921
v 2.887589 12.602453 -8.923922
v 2.887589 -0.226856 -6.923921
v 2.887589 5.542044 -8.923922
v 2.887589 -0.226856 -8.923922
v 2.887589 12.602453 -6.923921
v 2.887589 5.542044 -6.923921
v -7.191823 -0.226856 -8.923922
v -7.191823 12.602453 -6.923921
v -7.191823 5.542044 -6.923921
v -7.191823 12.602453 -8.923922
v -7.191823 -0.226856 -6.923921
v -7.191823 5.542044 -8.923922
v -12.231528 8.426494 -6.923921
v -12.231528 8.426494 -8.923922
v 7.927295 8.426494 -8.923922
v 7.927295 8.426494 -6.923921
v 2.887589 8.426494 -6.923921
v 2.887589 8.426494 -8.923922
v -7.191823 8.426494 -8.923922
v -7.191823 8.426494 -6.923921
v -4.671969 12.602453 -8.923922
v -4.671969 -0.226856 -6.923921
v -4.671969 -0.226856 -8.923922
v -4.671969 12.602453 -6.923921
v 0.367736 -0.226856 -8.923922
v 0.367736 12.602453 -6.923921
v 0.367736 12.602453 -8.923922
v 0.367736 -0.226856 -6.923921
vt 0.562500 0.000000
vt 0.625000 0.000000
vt 0.625000 0.250000
vt 0.562500 0.250000
vt 0.562500 0.437500
vt 0.625000 0.437500
vt 0.625000 0.500000
vt 0.562500 0.500000
vt 0.625000 0.750000
vt 0.562500 0.750000
vt 0.242708 0.684947
vt 0.241885 0.912688
vt -0.016231 0.912688
vt -0.015408 0.684947
vt 0.312500 0.500000
vt 0.375000 0.500000
vt 0.375000 0.750000
vt 0.312500 0.750000
vt 0.812500 0.500000
vt 0.875000 0.500000
vt 0.875000 0.750000
vt 0.812500 0.750000
vt 0.245178 0.001724
vt 0.243531 0.457206
vt -0.014584 0.457206
vt -0.012938 0.001724
vt 0.500000 0.500000
vt 0.500000 0.750000
vt 0.375000 0.437500
vt 0.500000 0.437500
vt 0.375000 0.000000
vt 0.500000 0.000000
vt 0.500000 0.250000
vt 0.375000 0.250000
vt 0.718750 0.500000
vt 0.750000 0.500000
vt 0.750000 0.750000
vt 0.718750 0.750000
vt 0.218750 0.500000
vt 0.250000 0.500000
vt 0.250000 0.750000
vt 0.218750 0.750000
vt 1.017055 0.684947
vt 1.016231 0.912688
vt 0.758116 0.912688
vt 0.758939 0.684947
vt 0.687500 0.500000
vt 0.687500 0.750000
vt 1.019525 0.001723
vt 1.017878 0.457206
vt 0.759762 0.457206
vt 0.761409 0.001724
vt 0.281250 0.500000
vt 0.281250 0.750000
vt 0.625000 0.312500
vt 0.562500 0.312500
vt 0.125000 0.500000
vt 0.187500 0.500000
vt 0.187500 0.750000
vt 0.125000 0.750000
vt 0.500000 0.312500
vt 0.375000 0.312500
vt 0.781250 0.500000
vt 0.781250 0.750000
vt 0.000000 0.000000
vt 0.000000 0.000000
vt 0.000000 0.000000
vt 0.000000 0.000000
vt 0.000000 0.000000
vt 0.000000 0.000000
vt 0.000000 0.000000
vt 0.000000 0.000000
vt 0.000000 0.000000
vt 0.000000 0.000000
vt 0.000000 0.000000
vt 0.000000 0.000000
vt 0.000000 0.000000
vt 0.000000 0.000000
vt 0.000000 0.000000
vt 0.000000 0.000000
vn -1.0000 0.0000 0.0000
vn 0.0000 0.0000 -1.0000
vn 1.0000 0.0000 0.0000
vn 0.0000 0.0000 1.0000
vn 0.0000 -1.0000 0.0000
vn 0.0000 1.0000 0.0000
usemtl 01___Default.003
s off
f 77/97/37 50/98/37 52/99/37 78/100/37
f 82/101/38 65/102/38 56/103/38 79/104/38
f 79/104/39 56/103/39 54/105/39 80/106/39
f 84/107/40 72/108/40 50/109/40 77/110/40
f 68/111/41 55/112/41 53/113/41 66/114/41
f 74/115/42 52/116/42 50/117/42 72/118/42
f 75/119/40 73/120/40 57/121/40 49/122/40
f 55/112/39 59/123/39 60/124/39 53/113/39
f 68/125/38 67/126/38 59/123/38 55/112/38
f 49/127/37 57/128/37 58/129/37 51/130/37
f 91/131/42 62/132/42 64/133/42 90/134/42
f 87/135/41 61/136/41 63/137/41 86/138/41
f 80/139/40 54/140/40 69/141/40 81/142/40
f 56/103/42 65/143/42 69/144/42 54/105/42
f 53/145/40 60/146/40 70/147/40 66/148/40
f 89/149/41 68/111/41 66/114/41 92/150/41
f 78/100/38 52/99/38 74/151/38 83/152/38
f 51/153/41 71/154/41 75/155/41 49/156/41
f 51/130/38 58/129/38 76/157/38 71/158/38
f 85/159/42 74/115/42 72/118/42 88/160/42
f 58/129/38 78/100/38 83/152/38 76/157/38
f 60/146/40 80/139/40 81/142/40 70/147/40
f 73/120/40 84/107/40 77/110/40 57/121/40
f 59/123/39 79/104/39 80/106/39 60/124/39
f 67/126/38 82/101/38 79/104/38 59/123/38
f 57/128/37 77/97/37 78/100/37 58/129/37
f 62/132/42 85/159/42 88/160/42 64/133/42
f 71/154/41 87/135/41 86/138/41 75/155/41
f 61/136/41 89/149/41 92/150/41 63/137/41
f 65/143/42 91/131/42 90/134/42 69/144/42
f 81/161/37 69/162/37 65/163/37 82/164/37 67/165/37 68/166/37 66/167/37 70/168/37
f 83/169/39 74/170/39 72/171/39 84/172/39 73/173/39 75/174/39 71/175/39 76/176/39
o Куб_Куб.009
v -12.703272 -1.000000 8.704499
v -12.703272 1.000000 8.704499
v -12.703272 -1.000000 -8.704499
v -12.703272 1.000000 -8.704499
v 12.703272 -1.000000 8.704499
v 12.703272 1.000000 8.704499
v 12.703272 -1.000000 -8.704499
v 12.703272 1.000000 -8.704499
vt 0.375000 0.000000
vt 0.625000 0.000000
vt 0.625000 0.250000
vt 0.375000 0.250000
vt 0.625000 0.500000
vt 0.375000 0.500000
vt 0.625000 0.750000
vt 0.375000 0.750000
vt 0.625000 1.000000
vt 0.375000 1.000000
vt 0.125000 0.500000
vt 0.125000 0.750000
vt 0.008305 -0.033421
vt 0.998885 -0.033421
vt 0.998885 0.957160
vt 0.008305 0.957160
vn -1.0000 0.0000 0.0000
vn 0.0000 0.0000 -1.0000
vn 1.0000 0.0000 0.0000
vn 0.0000 0.0000 1.0000
vn 0.0000 -1.0000 0.0000
vn 0.0000 1.0000 0.0000
usemtl Материал
s off
f 93/177/43 94/178/43 96/179/43 95/180/43
f 95/180/44 96/179/44 100/181/44 99/182/44
f 99/182/45 100/181/45 98/183/45 97/184/45
f 97/184/46 98/183/46 94/185/46 93/186/46
f 95/187/47 99/182/47 97/184/47 93/188/47
f 100/189/48 96/190/48 94/191/48 98/192/48
